<svg version="1.1" xmlns="http://www.w3.org/2000/svg" viewBox="0 0 209 209">
  <!-- svg-source:excalidraw -->
  <defs>
    <style>
      @font-face {
        font-family: "Virgil";
        src: url("https://excalidraw.com/FG_Virgil.woff2");
      }
      @font-face {
        font-family: "Cascadia";
        src: url("https://excalidraw.com/Cascadia.woff2");
      }
    </style>
  </defs>
  <g><g transform="translate(17 105) rotate(0 89.14645860670134 -28.11056393583854)"><path d="M-0.3489581622183323 1.040551558881998 C8.853471712519724 -7.000298293679953, 35.89419847751657 -39.3452917975684, 54.86429879292846 -48.6329665504396 C73.83439910834035 -57.920641303310795, 92.95297290906309 -63.411373281727236, 113.47164373025298 -54.685496958345176 C133.99031455144285 -45.959620634963116, 166.86698441132904 -6.028814069678386, 177.97632372006774 3.7222913898527623 M-0.3839172896929086 -1.4914907663874328 C9.260889915705969 -9.00621229050681, 37.008573145351065 -37.23570075887565, 56.10921571223065 -46.448354914169755 C75.20985827911024 -55.66100906946386, 93.79200164644048 -65.07519133844103, 114.21993811158464 -56.767415698152035 C134.64787457672878 -48.45964005786305, 167.70556877998635 -6.54275461214905, 178.6768345030956 3.398298927564174" style="stroke: rgb(0, 0, 0); stroke-width: 4px; fill: none;"></path></g></g><g><g transform="translate(14.5 159.5) rotate(0 89.7722345389426 -27.745563909111837)"><path d="M-0.6343153081834316 -51.37668877439828 C8.515016317119201 -44.40803202828944, 36.71209231192867 -18.33405235602737, 55.737125078588726 -10.487148319298283 C74.76215784524878 -2.6402442825691965, 92.77560474053026 3.2066940733352673, 113.51588129177689 -4.295264554023762 C134.25615784302354 -11.797223181382792, 169.3990859903395 -47.22034364057084, 180.17878438606857 -55.49890008345246 M-0.05828664002940065 -50.556848311166036 C9.424069370844713 -43.288075644155896, 36.865475169240185 -16.830147071790254, 55.516125762481245 -9.025136143548297 C74.1667763557223 -1.2201252153063384, 91.31758015038446 3.991703145590611, 111.84561691941694 -3.726782741714289 C132.37365368844942 -11.44526862901919, 167.56201282801106 -46.58896239727115, 178.6843463766761 -55.33605146737769" style="stroke: rgb(0, 0, 0); stroke-width: 4px; fill: none;"></path></g></g><g transform="translate(74 72) rotate(0 31.5 29)"><path d="M35.86995629720709 0.782564529096895 C42.27576667604362 1.1453091384329668, 50.30145469712506 4.602559000963459, 54.66539047711263 8.822086839236569 C59.0293262571002 13.041614677509678, 61.8052926061377 19.980293647032134, 62.05357097713251 26.099731558735556 C62.30184934812732 32.21916947043898, 59.936623147753714 40.4259524257282, 56.155060703081475 45.53871430945709 C52.373498258409235 50.651476193185985, 45.644512446414254 55.049794724845384, 39.364196309099064 56.776302861108924 C33.083880171783875 58.502810997372464, 24.668721174651058 58.457626352623954, 18.473163879190345 55.89776312703832 C12.277606583729632 53.33789990145268, 4.954702486805756 47.17121322563671, 2.190852536334795 41.41712350759511 C-0.5729974141361662 35.6630337895535, -0.041080112396398194 27.316193240281958, 1.8900641763645787 21.373224818788678 C3.8212084651255553 15.430256397295398, 8.081875861032817 9.31840143654059, 13.777718268900657 5.759312978635425 C19.473560676768496 2.2002245207302593, 31.772599709752935 0.6051841707760174, 36.06511862357162 0.01869407135768597 C40.3576375373903 -0.5677960280606454, 39.449283257565206 1.5406334854915897, 39.53283175181277 2.240372382125436 M31.517222008929476 -0.6480770412920869 C38.15856920724005 -1.4042958974721835, 46.98884099219332 2.108003675091045, 52.36591185735408 6.090443418336296 C57.74298272251484 10.072883161581547, 62.8873254306104 16.993363451770414, 63.77964719989405 23.246561418179418 C64.6719689691777 29.499759384588423, 61.00025352222375 38.30969360932827, 57.71984247305595 43.609631216790326 C54.439431423888145 48.90956882425238, 49.98912617708898 52.99036944113172, 44.097180904887246 55.04618706295176 C38.205235632685515 57.1020046847718, 28.99896946845585 57.58325051282133, 22.368170839845565 55.94453694771059 C15.737372211235279 54.30582338259985, 8.097214324333663 50.45334416854764, 4.31238913322553 45.2139056722873 C0.5275639421173959 39.974467176026955, -1.5839203271616977 30.93674288667219, -0.34078030680323934 24.507905970148535 C0.902359713555219 18.07906905362488, 6.698280842485569 10.479006483140772, 11.77122925537628 6.6408841731453805 C16.84417766826699 2.8027618631499895, 26.64878067843614 2.688081145021167, 30.096910170541026 1.47917211017619 C33.54503966264591 0.2702630753312132, 32.11158162685106 -0.6650547816338536, 32.46000620800561 -0.612570035924481" style="stroke: rgb(0, 0, 0); stroke-width: 4px; fill: none;"></path></g><g transform="translate(10 10) rotate(0 94.5 94.5)"><path d="M1.1917025186121464 0.6722759269177914 C48.851719164662065 -2.0329207036457957, 98.39177502579987 -0.5826117846928536, 188.41269997134805 -1.559683058410883 M-0.45178030617535114 0.11284060962498188 C62.723443593643616 -0.040043302197009356, 123.76464764177801 1.5780286711268126, 189.12811918370426 0.44111658819019794 M189.59077671542764 1.3828304074704647 C188.34733825946228 39.56451653074473, 188.41080230498687 79.46131724752486, 190.03007021918893 187.51955046877265 M188.25689239613712 -0.5471460651606321 C189.1015837485902 69.11992137413472, 188.72099479986355 135.94618566706777, 188.5424326788634 189.76784141547978 M189.8054064847529 190.77642550691962 C125.19657531548292 188.4806896716915, 56.43189468942583 188.09162023371084, 1.9391923286020756 187.75289395079017 M188.05446089617908 188.88191946037114 C123.5144298793748 187.41213333802298, 57.215745221823454 188.98352486090735, 0.09562976472079754 189.144372837618 M-1.5798134468495846 189.82510712370276 C-0.20072122925892466 151.43216837067158, 0.019626056011766257 113.61445163302123, -0.2714327238500118 1.6709870360791683 M-0.8367237318307161 189.50874079950154 C-1.343945815246552 129.3906168440357, -1.294614567440003 71.92546415627002, -0.8981416095048189 -0.19363240711390972" style="stroke: transparent; stroke-width: 4px; fill: none;"></path></g><g><g transform="translate(40 36) rotate(0 68.10749931707977 68.35013705051506)"><path d="M-0.6749543510377407 -0.7214789427816868 C22.072643112887942 21.95570221369465, 114.0783487158517 112.97086287761728, 136.8899529851973 136.12054845914244 M0.05779158951714636 0.7378175821714104 C23.119470358112206 23.943656434298806, 113.65527795475596 115.01215402551617, 136.73250899614766 137.42175304381178" style="stroke: rgb(0, 0, 0); stroke-width: 4px; fill: none;"></path></g></g><g><g transform="translate(170 38.5) rotate(0 -64.12611254475075 63.811039097374305)"><path d="M-0.2916419349610806 0.5521574936807156 C-21.090034461269777 21.879853379974765, -104.88041650479039 106.8815639299651, -125.80562253817916 127.99445955380797 M-0.6067347347550094 -0.37238135905936365 C-21.65450710751737 21.060746362290033, -106.67548707801228 105.84992393601065, -127.96058315454052 127.23054717509076" style="stroke: rgb(0, 0, 0); stroke-width: 4px; fill: none;"></path></g></g></svg>