<svg version="1.1" xmlns="http://www.w3.org/2000/svg" viewBox="0 0 264 264">
  <!-- svg-source:excalidraw -->
  <defs>
    <style>
      @font-face {
        font-family: "Virgil";
        src: url("https://excalidraw.com/FG_Virgil.woff2");
      }
      @font-face {
        font-family: "Cascadia";
        src: url("https://excalidraw.com/Cascadia.woff2");
      }
    </style>
  </defs>
  <g><g transform="translate(73.863592112177 58.40108622610569) rotate(0 31.57575037903365 94.39356340805557)"><path d="M-0.41662665278365735 -0.40108622610569 C-0.7764435616686156 27.569803841545326, -13.634253524673152 136.84444448233134, -2.033220347762108 168.36205658992614 C9.567812829148938 199.87966869752094, 57.21279205173792 185.38774576150792, 69.18957240868261 188.70458641946317 M-0.023346004716063684 0.6090766447037459 C-0.15167421607218282 28.460885126947502, -13.715107488688991 135.62274747364705, -2.041283505484462 166.98537017417934 C9.632540477720068 198.34799287471162, 58.31648585297705 185.47122537569118, 70.01959789451112 188.7848128478974" style="stroke: rgb(0, 0, 0); stroke-width: 4px; fill: none;"></path></g></g><g><g transform="translate(144.78288068649442 62.700543113052845) rotate(0 25.747788047403446 92.00000735411587)"><path d="M49.494818699723915 -0.4100754350423813 C49.937186296505146 27.046784416161408, 58.827737252973904 134.57136165111967, 50.1807597960058 165.43615693344134 C41.5337823390377 196.300952215763, 6.4168117413094174 181.81473351072265, -2.3870460420846937 184.77869625888763 M47.5912565472637 -1.57873684220016 C47.73929078861814 25.83272320250415, 59.39701187629341 132.64670390702497, 51.04597488286825 163.69361487051805 C42.69493788944309 194.74052583401112, 6.552846544625416 181.09072437721983, -2.514965413287282 184.70272893875838" style="stroke: rgb(0, 0, 0); stroke-width: 4px; fill: none;"></path></g></g><g transform="translate(62.68365612465925 35.98144754237475) rotate(1.7714697400340835 72.41515764520915 11.49024056522343)"><path d="M42.45890339847057 -0.03507961620462474 C52.93719745576963 -1.0743773732585362, 69.65608499581228 -0.39694650344216686, 82.13068089750075 -0.10844194071004054 C94.60527679918923 0.18006262202208578, 107.69768817241477 0.3487938438259943, 117.30647880860137 1.6959477601881332 C126.91526944478797 3.043101676550272, 135.50012774952864 5.935268806537829, 139.7834247146203 7.974481557462793 C144.06672167971197 10.013694308387757, 145.34691143381653 11.917007897536017, 143.00626059915143 13.931224265737914 C140.66560976448633 15.94544063393981, 134.23331333948147 18.56152042412343, 125.73951970662979 20.05977976667418 C117.2457260737781 21.55803910922493, 104.08540597675808 22.62056810614042, 92.04349880204131 22.920780321042404 C80.00159162732454 23.220992535944387, 65.48654184377035 22.42492659019164, 53.48807665832915 21.86105305608608 C41.48961147288794 21.297179521980524, 28.876661367022876 20.820044095284832, 20.05270768939406 19.537539116409054 C11.228754011765247 18.255034137533276, 3.302170609224948 16.1731056781567, 0.5443545925562603 14.166023182831417 C-2.2134614241124275 12.158940687506135, -0.977421172420228 9.425120911980724, 3.505811589381935 7.49504414445736 C7.989044351184098 5.564967376933995, 20.091441257119616 3.814598903211449, 27.443751163369235 2.5855625776912294 C34.79606106961886 1.35652625217101, 43.41529445698619 0.38777729341969663, 47.61967102687966 0.12082619133604311 C51.82404759677313 -0.14612491074761041, 52.08524343289838 0.5815187571773495, 52.67001058273006 0.9838559651893082 M45.27416724980202 0.10930747228055537 C56.22019829104539 -0.934163668132066, 72.16975609199578 -0.4424478117186924, 84.60970710429395 0.13168285754069942 C97.04965811659211 0.7058135268000912, 110.2392841086358 2.4369396392029445, 119.91387332359105 3.5540914878369065 C129.5884625385463 4.6712433364708685, 139.0745035156731 5.101156245988448, 142.65724239402545 6.83459394934447 C146.2399812723778 8.568031652700492, 144.34523065946797 12.012754895346557, 141.41030659370523 13.954717707973039 C138.4753825279425 15.89668052059952, 133.5766098989549 17.187950297675215, 125.04769799944907 18.486370825103364 C116.51878609994324 19.784791352531514, 102.71514731017808 20.846891381885257, 90.23683519667024 21.745240872541935 C77.7585230831624 22.643590363198612, 62.37199472908207 24.544317103240573, 50.17782531840207 23.87646776904344 C37.983655907722074 23.208618434846308, 25.073771267446013 19.633021878630853, 17.071818732590266 17.738144867359143 C9.069866197734521 15.843267856087433, 4.286779129741619 14.461350758295657, 2.1661101092676063 12.507205701413177 C0.045441088793593654 10.553060644530698, -0.30747224354880576 7.783566885075147, 4.347804609746191 6.013274526064261 C9.003081463041188 4.242982167053374, 23.405700247112396 2.8195772342140297, 30.09777122903759 1.8854515473478575 C36.78984221096279 0.9513258604816852, 41.59255932108379 0.7522788597377821, 44.50023050129737 0.40852040486722707 C47.40790168151094 0.06476194999667201, 46.957554733384946 -0.2013606415532395, 47.543798310319055 -0.17709918187547302" style="stroke: rgb(0, 0, 0); stroke-width: 4px; fill: none;"></path></g><g><g transform="translate(98 92) rotate(0 -2.7887315147668232 61.27718396611513)"><path d="M-0.9625413805246352 1.1650206953287123 C-2.039850130677223 16.66100874642531, -5.891896938284239 73.77622541487216, -6.08601578772068 93.93191093504429 C-6.280134637157122 114.08759645521641, -2.956332038839658 117.09615317086379, -2.1272544771432873 122.09913381636143 M0.5129933374375106 -0.8586085539311171 C-0.5836573130637406 15.274507766837878, -5.5580933156361185 74.42089426226914, -6.053506808951497 95.13282510228456 C-6.548920302266876 115.84475594229997, -3.096399339710673 118.81747282611828, -2.4594876224547626 123.41297648616136" style="stroke: rgb(0, 0, 0); stroke-width: 4px; fill: none;"></path></g></g><g><g transform="translate(174.1789767261614 90.30138265460272) rotate(4.820134318095952 -2.1755466169316833 66.19146222397018)"><path d="M-5.091619196534157 0.44976409971714015 C-3.7429641681727315 16.823325787289107, 1.973989022877828 77.0796927552136, 2.2276794237991906 98.99359212996461 C2.481369824720553 120.90749150471562, -2.2681445755227054 126.7626650949736, -3.5694767910059815 131.9331603482232 M-7.396929631903768 0.649738373234868 C-6.05101730650331 17.630285431919656, 2.5512970100164574 79.9035399239721, 3.0458363980403282 101.56889572391309 C3.540375786064199 123.23425152385407, -3.131461433412001 125.4646179208328, -4.4296933037605415 130.64187317288076" style="stroke: rgb(0, 0, 0); stroke-width: 4px; fill: none;"></path></g></g><g><g transform="translate(132 92) rotate(0 -0.06222756214435776 62.2247023225203)"><path d="M-1.1620448023080825 -0.2646522134542465 C-1.0394908815622328 15.868989442785582, 0.05661599735418965 76.27747495075066, 0.1730043500661851 97.09298204481601 C0.2893927027781805 117.90848913888136, -0.17331898113091782 120.01946182946365, -0.4637146860361099 124.62839035093785 M1.6328394406288864 0.6926385969668627 C1.4551126640290024 17.01673867729803, 0.8227365216861168 77.11130497721334, 0.25771418742835506 97.78154135413467 C-0.30730814682940666 118.45177773105601, -1.2741116013874612 120.26888942586878, -1.7572945649176837 124.71405685849487" style="stroke: rgb(0, 0, 0); stroke-width: 4px; fill: none;"></path></g></g><g><g transform="translate(71.59427352845671 56.614752696230994) rotate(0 59.495378456152935 6.99792076180637)"><path d="M-0.5942735284566879 1.0225078672170638 C9.45135330618325 2.882961568236351, 41.37229563062806 11.127498826384546, 61.33289753263612 11.941910657286645 C81.29349943464418 12.756322488188744, 109.27178825796548 6.89851904809475, 119.16933788359165 5.908978852629661 M-0.25270648531615736 0.3852473037689923 C10.142659016335042 2.5108963053673508, 42.09528317643125 12.579322292134167, 62.068239330777715 13.545848750397564 C82.04119548512418 14.512375208660961, 109.87230345793965 7.51773700170219, 119.58503044076264 6.184406053349376" style="stroke: rgb(0, 0, 0); stroke-width: 4px; fill: none;"></path></g></g><g transform="translate(10 10) rotate(0 122 122)"><path d="M-0.8569870747383415 0.48884650551407927 C80.18863414713971 1.8333174987953442, 155.76144510492475 0.7450486883787412, 245.14711173104456 0.9249260514127075 M0.5790999554539352 0.2515529169092029 C56.50870001738526 0.31506203630485374, 113.35544266141193 0.5159183540390951, 243.99170182448174 -0.4699872418997913 M245.42879205475822 1.4266416346570312 C246.05552378170296 54.76398855726865, 246.79311987190167 110.27386281321157, 245.4712603450809 245.35917980099634 M243.25422043780802 0.4202934301621288 C243.62526800108938 82.17853018958435, 242.2931463945627 163.91578448151083, 244.31150845680224 244.33770630092772 M243.2370122668903 245.3592838619262 C164.43767695858838 244.33324715015235, 88.07426296392781 245.35407265290715, 0.1678834024949729 243.572142634839 M243.36035529412752 244.17345242985 C178.13964958326028 242.95589763356693, 111.11521478124624 242.91249456864128, -0.45087443447040015 243.48118807931127 M0.14179564271256326 244.0813253781419 C1.8090758414979313 167.05004492046368, 0.24423871754868975 87.5245185746324, -1.065753796908599 1.4418822250109968 M0.69790935419766 244.10779727525014 C-0.4225220533824523 194.15256837369017, -0.9390456251984198 143.72630924975172, -0.07326037892602383 -0.008076738096824288" style="stroke: transparent; stroke-width: 4px; fill: none;"></path></g><g><g transform="translate(120.92505458148185 39.55640287825918) rotate(16.98623578085967 15.396238731735423 -11.871557958874163)"><path d="M0.829993352293968 0.12285541937475097 C1.0594043029009772 -3.298871544357399, -2.9250494930970095 -15.179952645150408, 1.569179068600819 -19.349775020702474 C6.063407630298647 -23.51959739625454, 22.77573135676816 -26.57797143182762, 27.79536472248094 -24.896078833937644 C32.81499808819372 -23.214186236047667, 31.313309748489917 -11.778245089556876, 31.686979262877504 -9.258419433362608 M0.16628801040351382 1.6222970252556075 C0.49230783580834414 -1.5524345728568827, -3.2025858448522717 -15.19718822337447, 1.494936543425605 -19.550707753448478 C6.192458931703482 -23.904227283522488, 23.317134903026968 -25.767389972946123, 28.351422340070773 -24.49882015518844 C33.38570977711458 -23.230250337430757, 31.010911417250096 -14.268092366885249, 31.700661165688434 -11.939288846902375" style="stroke: rgb(0, 0, 0); stroke-width: 4px; fill: none;"></path></g></g></svg>